<svg viewBox="0 0 100 100" width="100%" height="100%" xmlns="http://www.w3.org/2000/svg">
  <defs>
    <linearGradient id="clayGrad" x1="0%" y1="0%" x2="100%" y2="100%">
      <stop offset="0%" stop-color="#fffbeb" />
      <stop offset="100%" stop-color="#d97706" />
    </linearGradient>
    <filter id="dropShadow" x="-15%" y="-15%" width="130%" height="130%">
      <feDropShadow dx="2" dy="5" stdDeviation="4" flood-color="#000000" flood-opacity="0.4" />
    </filter>
  </defs>

  <!-- Base Clay Plate -->
  <rect x="5" y="5" width="90" height="90" rx="22" fill="url(#clayGrad)" filter="url(#dropShadow)" />
  <!-- Inset Highlight -->
  <rect x="6" y="6" width="88" height="88" rx="21" fill="none" stroke="#ffffff" stroke-width="3" opacity="0.45" />
  <!-- Outer Bevel Shadow -->
  <rect x="5" y="5" width="90" height="90" rx="22" fill="none" stroke="#000000" stroke-width="3.5" opacity="0.15" />

  <!-- Drawing content -->
  <path d="M 22 42 C 22 32, 78 32, 78 42 C 78 52, 73 73, 63 73 C 53 73, 53 62, 47 62 C 41 62, 41 73, 27 73 C 17 73, 22 52, 22 42 Z" fill="#b45309" opacity="0.3" transform="translate(1, 1)" />
  <path d="M 20 40 C 20 30, 80 30, 80 40 C 80 50, 75 75, 65 75 C 55 75, 55 60, 45 60 C 35 60, 35 75, 25 75 C 15 75, 20 50, 20 40 Z" fill="none" stroke="#0f172a" stroke-width="4.5" stroke-linecap="round" stroke-linejoin="round" />
  <path d="M 34 40 V 52 M 28 46 H 40" fill="none" stroke="#0f172a" stroke-width="4.5" stroke-linecap="round" stroke-linejoin="round" />
  <circle cx="62" cy="43" r="3.5" fill="none" stroke="#0f172a" stroke-width="4" />
  <circle cx="70" cy="49" r="3.5" fill="none" stroke="#0f172a" stroke-width="4" />
  <path d="M 44 48 H 48" fill="none" stroke="#0f172a" stroke-width="4" stroke-linecap="round" />
  <path d="M 52 48 H 56" fill="none" stroke="#0f172a" stroke-width="4" stroke-linecap="round" />
</svg>
