<svg viewBox="0 0 100 100" width="100%" height="100%" xmlns="http://www.w3.org/2000/svg">
  <defs>
    <linearGradient id="clayGrad" x1="0%" y1="0%" x2="100%" y2="100%">
      <stop offset="0%" stop-color="#e0f2fe" />
      <stop offset="100%" stop-color="#0284c7" />
    </linearGradient>
    <filter id="dropShadow" x="-15%" y="-15%" width="130%" height="130%">
      <feDropShadow dx="2" dy="5" stdDeviation="4" flood-color="#000000" flood-opacity="0.4" />
    </filter>
  </defs>

  <!-- Base Clay Plate -->
  <rect x="5" y="5" width="90" height="90" rx="22" fill="url(#clayGrad)" filter="url(#dropShadow)" />
  <!-- Inset Highlight -->
  <rect x="6" y="6" width="88" height="88" rx="21" fill="none" stroke="#ffffff" stroke-width="3" opacity="0.45" />
  <!-- Outer Bevel Shadow -->
  <rect x="5" y="5" width="90" height="90" rx="22" fill="none" stroke="#000000" stroke-width="3.5" opacity="0.15" />

  <!-- Drawing content -->
  <path d="M 27 27 C 43 24, 57 24, 73 27 C 73 44, 69 60, 50 77 C 31 60, 27 44, 27 27 Z" fill="#0369a1" opacity="0.3" transform="translate(1, 1)" />
  <path d="M 25 25 C 42 22, 58 22, 75 25 C 75 43, 70 60, 50 78 C 30 60, 25 43, 25 25 Z" fill="none" stroke="#0f172a" stroke-width="4.5" stroke-linecap="round" stroke-linejoin="round" />
  
  <!-- C -->
  <path d="M 41 42 C 35 42, 34 46, 34 50 C 34 54, 35 58, 41 58" fill="none" stroke="#0f172a" stroke-width="4.5" stroke-linecap="round" stroke-linejoin="round" />
  <!-- S -->
  <path d="M 53 42 C 48 41, 47 45, 49 47 C 51 49, 55 49, 55 53 C 55 57, 49 58, 47 56" fill="none" stroke="#0f172a" stroke-width="4.5" stroke-linecap="round" stroke-linejoin="round" />
  <!-- I -->
  <path d="M 62 42 H 68 M 65 42 V 58 M 62 58 H 68" fill="none" stroke="#0f172a" stroke-width="4.5" stroke-linecap="round" stroke-linejoin="round" />
</svg>
