<svg viewBox="0 0 100 100" width="100%" height="100%" xmlns="http://www.w3.org/2000/svg">
  <defs>
    <linearGradient id="clayGrad" x1="0%" y1="0%" x2="100%" y2="100%">
      <stop offset="0%" stop-color="#f0fdfa" />
      <stop offset="100%" stop-color="#0d9488" />
    </linearGradient>
    <filter id="dropShadow" x="-15%" y="-15%" width="130%" height="130%">
      <feDropShadow dx="2" dy="5" stdDeviation="4" flood-color="#000000" flood-opacity="0.4" />
    </filter>
  </defs>

  <!-- Base Clay Plate -->
  <rect x="5" y="5" width="90" height="90" rx="22" fill="url(#clayGrad)" filter="url(#dropShadow)" />
  <!-- Inset Highlight -->
  <rect x="6" y="6" width="88" height="88" rx="21" fill="none" stroke="#ffffff" stroke-width="3" opacity="0.45" />
  <!-- Outer Bevel Shadow -->
  <rect x="5" y="5" width="90" height="90" rx="22" fill="none" stroke="#000000" stroke-width="3.5" opacity="0.15" />

  <!-- Drawing content -->
  <path d="M 50 20 L 78 32 L 50 44 L 22 32 Z" fill="#0f766e" opacity="0.25" transform="translate(1, 1)" />
  <path d="M 50 38 L 78 50 L 50 62 L 22 50 Z" fill="#0f766e" opacity="0.25" transform="translate(1, 1)" />
  <path d="M 50 56 L 78 68 L 50 80 L 22 68 Z" fill="#0f766e" opacity="0.25" transform="translate(1, 1)" />
  
  <path d="M 50 18 L 78 30 L 50 42 L 22 30 Z" fill="none" stroke="#0f172a" stroke-width="4" stroke-linecap="round" stroke-linejoin="round" />
  <path d="M 22 48 L 50 60 L 78 48" fill="none" stroke="#0f172a" stroke-width="4" stroke-linecap="round" stroke-linejoin="round" />
  <path d="M 22 66 L 50 78 L 78 66" fill="none" stroke="#0f172a" stroke-width="4" stroke-linecap="round" stroke-linejoin="round" />
  <path d="M 50 42 V 60 M 50 60 V 78 M 22 30 V 66 M 78 30 V 66" fill="none" stroke="#0f172a" stroke-width="2.5" stroke-dasharray="3 3" opacity="0.6" />
</svg>
