<svg viewBox="0 0 100 100" width="100%" height="100%" xmlns="http://www.w3.org/2000/svg">
  <defs>
    <linearGradient id="clayGrad" x1="0%" y1="0%" x2="100%" y2="100%">
      <stop offset="0%" stop-color="#fff7ed" />
      <stop offset="100%" stop-color="#ea580c" />
    </linearGradient>
    <filter id="dropShadow" x="-15%" y="-15%" width="130%" height="130%">
      <feDropShadow dx="2" dy="5" stdDeviation="4" flood-color="#000000" flood-opacity="0.4" />
    </filter>
  </defs>

  <!-- Base Clay Plate -->
  <rect x="5" y="5" width="90" height="90" rx="22" fill="url(#clayGrad)" filter="url(#dropShadow)" />
  <!-- Inset Highlight -->
  <rect x="6" y="6" width="88" height="88" rx="21" fill="none" stroke="#ffffff" stroke-width="3" opacity="0.45" />
  <!-- Outer Bevel Shadow -->
  <rect x="5" y="5" width="90" height="90" rx="22" fill="none" stroke="#000000" stroke-width="3.5" opacity="0.15" />

  <!-- Drawing content -->
  <path d="M 24 27 H 80 V 84 H 24 Z" fill="#c2410c" opacity="0.3" transform="translate(1, 1)" />
  <path d="M 22 25 H 78 V 82 H 22 Z" fill="none" stroke="#0f172a" stroke-width="4.5" stroke-linecap="round" stroke-linejoin="round" />
  <path d="M 22 38 H 78" fill="none" stroke="#0f172a" stroke-width="3.5" stroke-linecap="round" />
  <path d="M 32 28 C 32 16, 38 16, 38 28" fill="none" stroke="#0f172a" stroke-width="3.5" stroke-linecap="round" />
  <path d="M 50 28 C 50 16, 56 16, 56 28" fill="none" stroke="#0f172a" stroke-width="3.5" stroke-linecap="round" />
  <path d="M 68 28 C 68 16, 74 16, 74 28" fill="none" stroke="#0f172a" stroke-width="3.5" stroke-linecap="round" />
  <path d="M 36 46 C 42 44, 46 47, 44 51 C 47 55, 42 58, 36 56" fill="none" stroke="#0f172a" stroke-width="5" stroke-linecap="round" stroke-linejoin="round" />
  <path d="M 54 48 L 60 45 V 60" fill="none" stroke="#0f172a" stroke-width="5" stroke-linecap="round" stroke-linejoin="round" />
  <path d="M 48 36 C 65 36, 70 54, 52 64 C 36 72, 28 52, 48 36 Z" fill="none" stroke="#0f172a" stroke-width="3" stroke-linecap="round" opacity="0.85" />
</svg>
