<svg viewBox="0 0 100 100" width="100%" height="100%" xmlns="http://www.w3.org/2000/svg">
  <defs>
    <linearGradient id="clayGrad" x1="0%" y1="0%" x2="100%" y2="100%">
      <stop offset="0%" stop-color="#fdf4ff" />
      <stop offset="100%" stop-color="#c026d3" />
    </linearGradient>
    <filter id="dropShadow" x="-15%" y="-15%" width="130%" height="130%">
      <feDropShadow dx="2" dy="5" stdDeviation="4" flood-color="#000000" flood-opacity="0.4" />
    </filter>
  </defs>

  <!-- Base Clay Plate -->
  <rect x="5" y="5" width="90" height="90" rx="22" fill="url(#clayGrad)" filter="url(#dropShadow)" />
  <!-- Inset Highlight -->
  <rect x="6" y="6" width="88" height="88" rx="21" fill="none" stroke="#ffffff" stroke-width="3" opacity="0.45" />
  <!-- Outer Bevel Shadow -->
  <rect x="5" y="5" width="90" height="90" rx="22" fill="none" stroke="#000000" stroke-width="3.5" opacity="0.15" />

  <!-- Drawing content -->
  <path d="M 50 20 C 35 20, 20 30, 20 45 C 20 55, 30 65, 45 68 C 47 75, 53 75, 55 68 C 70 65, 80 55, 80 45 C 80 30, 65 20, 50 20 Z" fill="#a21caf" opacity="0.3" transform="translate(1, 1)" />
  <path d="M 50 22 C 38 22, 25 28, 25 42 C 25 52, 33 60, 48 64" fill="none" stroke="#0f172a" stroke-width="4.5" stroke-linecap="round" stroke-linejoin="round" />
  <path d="M 50 22 C 62 22, 75 28, 75 42 C 75 52, 67 60, 52 64" fill="none" stroke="#0f172a" stroke-width="4.5" stroke-linecap="round" stroke-linejoin="round" />
  <path d="M 50 22 V 64" fill="none" stroke="#0f172a" stroke-width="3" stroke-dasharray="2 4" stroke-linecap="round" />
  
  <circle cx="38" cy="35" r="4" fill="none" stroke="#0f172a" stroke-width="3" />
  <circle cx="38" cy="35" r="2" fill="#0f172a" />
  
  <circle cx="62" cy="35" r="4" fill="none" stroke="#0f172a" stroke-width="3" />
  <circle cx="62" cy="35" r="2" fill="#0f172a" />

  <circle cx="33" cy="50" r="4" fill="none" stroke="#0f172a" stroke-width="3" />
  <circle cx="33" cy="50" r="2" fill="#0f172a" />

  <circle cx="67" cy="50" r="4" fill="none" stroke="#0f172a" stroke-width="3" />
  <circle cx="67" cy="50" r="2" fill="#0f172a" />

  <circle cx="50" cy="55" r="4" fill="none" stroke="#0f172a" stroke-width="3" />
  <circle cx="50" cy="55" r="2" fill="#0f172a" />

  <path d="M 38 35 L 50 55 M 62 35 L 50 55 M 33 50 L 50 55 M 67 50 L 50 55 M 38 35 L 33 50 M 62 35 L 67 50" fill="none" stroke="#0f172a" stroke-width="2.5" stroke-linecap="round" opacity="0.8" />
</svg>
