<svg viewBox="0 0 100 100" width="100%" height="100%" xmlns="http://www.w3.org/2000/svg">
  <defs>
    <linearGradient id="clayGrad" x1="0%" y1="0%" x2="100%" y2="100%">
      <stop offset="0%" stop-color="#e0e7ff" />
      <stop offset="100%" stop-color="#4f46e5" />
    </linearGradient>
    <filter id="dropShadow" x="-15%" y="-15%" width="130%" height="130%">
      <feDropShadow dx="2" dy="5" stdDeviation="4" flood-color="#000000" flood-opacity="0.4" />
    </filter>
  </defs>

  <!-- Base Clay Plate -->
  <rect x="5" y="5" width="90" height="90" rx="22" fill="url(#clayGrad)" filter="url(#dropShadow)" />
  <!-- Inset Highlight -->
  <rect x="6" y="6" width="88" height="88" rx="21" fill="none" stroke="#ffffff" stroke-width="3" opacity="0.45" />
  <!-- Outer Bevel Shadow -->
  <rect x="5" y="5" width="90" height="90" rx="22" fill="none" stroke="#000000" stroke-width="3.5" opacity="0.15" />

  <!-- Drawing content -->
  <path d="M 50 13 C 58 23, 64 36, 64 53 L 36 53 C 36 36, 42 23, 50 13 Z" fill="#4338ca" opacity="0.3" transform="translate(1, 1)" />
  <path d="M 50 15 C 56 25, 62 38, 62 55 H 38 C 38 38, 44 25, 50 15 Z" fill="none" stroke="#0f172a" stroke-width="4.5" stroke-linecap="round" stroke-linejoin="round" />
  <path d="M 38 50 C 32 50, 24 55, 24 64 C 34 64, 38 58, 38 55" fill="none" stroke="#0f172a" stroke-width="4.5" stroke-linecap="round" stroke-linejoin="round" />
  <path d="M 62 50 C 68 50, 76 55, 76 64 C 66 64, 62 58, 62 55" fill="none" stroke="#0f172a" stroke-width="4.5" stroke-linecap="round" stroke-linejoin="round" />
  <circle cx="50" cy="38" r="4.5" fill="none" stroke="#0f172a" stroke-width="3.5" />
  <path d="M 44 58 L 50 75 L 56 58 C 52 62, 48 62, 44 58 Z" fill="none" stroke="#0f172a" stroke-width="3.5" stroke-linecap="round" stroke-linejoin="round" />
  <path d="M 22 25 L 24 28 L 27 29 L 24 30 L 22 33 L 20 30 L 17 29 L 20 28 Z" fill="none" stroke="#0f172a" stroke-width="2.5" stroke-linejoin="round" />
  <path d="M 76 25 L 78 28 L 81 29 L 78 30 L 76 33 L 74 30 L 71 29 L 74 28 Z" fill="none" stroke="#0f172a" stroke-width="2.5" stroke-linejoin="round" />
</svg>
