<svg viewBox="0 0 100 100" width="100%" height="100%" xmlns="http://www.w3.org/2000/svg">
  <defs>
    <linearGradient id="clayGrad" x1="0%" y1="0%" x2="100%" y2="100%">
      <stop offset="0%" stop-color="#fef08a" />
      <stop offset="100%" stop-color="#d97706" />
    </linearGradient>
    <filter id="dropShadow" x="-15%" y="-15%" width="130%" height="130%">
      <feDropShadow dx="2" dy="5" stdDeviation="4" flood-color="#000000" flood-opacity="0.4" />
    </filter>
  </defs>

  <!-- Base Clay Plate -->
  <rect x="5" y="5" width="90" height="90" rx="22" fill="url(#clayGrad)" filter="url(#dropShadow)" />
  <!-- Inset Highlight -->
  <rect x="6" y="6" width="88" height="88" rx="21" fill="none" stroke="#ffffff" stroke-width="3" opacity="0.45" />
  <!-- Outer Bevel Shadow -->
  <rect x="5" y="5" width="90" height="90" rx="22" fill="none" stroke="#000000" stroke-width="3.5" opacity="0.15" />

  <!-- Drawing content -->
  <path d="M 32 22 H 62 L 72 32 V 82 H 32 Z" fill="#b45309" opacity="0.3" transform="translate(1, 1)" />
  <path d="M 30 20 H 60 L 70 30 V 80 H 30 Z" fill="none" stroke="#0f172a" stroke-width="4.5" stroke-linecap="round" stroke-linejoin="round" />
  <path d="M 60 20 V 30 H 70" fill="none" stroke="#0f172a" stroke-width="4.5" stroke-linecap="round" stroke-linejoin="round" />
  <path d="M 38 42 Q 50 40, 62 42" fill="none" stroke="#0f172a" stroke-width="4.5" stroke-linecap="round" />
  <path d="M 38 54 Q 50 53, 62 54" fill="none" stroke="#0f172a" stroke-width="4.5" stroke-linecap="round" />
  <path d="M 38 66 Q 48 65, 58 66" fill="none" stroke="#0f172a" stroke-width="4.5" stroke-linecap="round" />
</svg>
