<svg viewBox="0 0 100 100" width="100%" height="100%" xmlns="http://www.w3.org/2000/svg">
  <defs>
    <linearGradient id="clayGrad" x1="0%" y1="0%" x2="100%" y2="100%">
      <stop offset="0%" stop-color="#fff1f2" />
      <stop offset="100%" stop-color="#e11d48" />
    </linearGradient>
    <filter id="dropShadow" x="-15%" y="-15%" width="130%" height="130%">
      <feDropShadow dx="2" dy="5" stdDeviation="4" flood-color="#000000" flood-opacity="0.4" />
    </filter>
  </defs>

  <!-- Base Clay Plate -->
  <rect x="5" y="5" width="90" height="90" rx="22" fill="url(#clayGrad)" filter="url(#dropShadow)" />
  <!-- Inset Highlight -->
  <rect x="6" y="6" width="88" height="88" rx="21" fill="none" stroke="#ffffff" stroke-width="3" opacity="0.45" />
  <!-- Outer Bevel Shadow -->
  <rect x="5" y="5" width="90" height="90" rx="22" fill="none" stroke="#000000" stroke-width="3.5" opacity="0.15" />

  <!-- Drawing content -->
  <path d="M 22 37 C 22 44, 30 47, 30 52 C 30 57, 22 60, 22 67 L 78 67 C 78 60, 70 57, 70 52 C 70 47, 78 44, 78 37 Z" fill="#be123c" opacity="0.3" transform="translate(1, 1)" />
  <path d="M 20 35 C 20 42, 28 45, 28 50 C 28 55, 20 58, 20 65 L 80 65 C 80 58, 72 55, 72 50 C 72 45, 80 42, 80 35 Z" fill="none" stroke="#0f172a" stroke-width="4.5" stroke-linecap="round" stroke-linejoin="round" />
  <path d="M 36 35 V 65" fill="none" stroke="#0f172a" stroke-width="2.5" stroke-dasharray="3 3" />
  <path d="M 55 42 L 57 47 L 62 48 L 58 52 L 59 57 L 55 54 L 51 57 L 52 52 L 48 48 L 53 47 Z" fill="none" stroke="#0f172a" stroke-width="4" stroke-linecap="round" stroke-linejoin="round" />
</svg>
